<?xml version="1.0" encoding="UTF-8"?>
<svg version="1.1" xmlns="http://www.w3.org/2000/svg" width="19252" height="2776">
<path d="M0 0 C6353.16 0 12706.32 0 19252 0 C19252 916.08 19252 1832.16 19252 2776 C12898.84 2776 6545.68 2776 0 2776 C0 1859.92 0 943.84 0 0 Z " fill="#D53B29" transform="translate(0,0)"/>
<path d="M0 0 C2347.62 0 4695.24 0 7114 0 C7114 916.08 7114 1832.16 7114 2776 C4766.38 2776 2418.76 2776 0 2776 C0 1859.92 0 943.84 0 0 Z " fill="#D53B29" transform="translate(0,0)"/>
<path d="M0 0 C1378.41 0 2756.82 0 4177 0 C4177 916.08 4177 1832.16 4177 2776 C2798.59 2776 1420.18 2776 0 2776 C0 1859.92 0 943.84 0 0 Z " fill="#D53B29" transform="translate(15075,0)"/>
<path d="M0 0 C425.37 0 850.74 0 1289 0 C1289 916.08 1289 1832.16 1289 2776 C863.63 2776 438.26 2776 0 2776 C0 1859.92 0 943.84 0 0 Z " fill="#D53B29" transform="translate(11991,0)"/>
<path d="M0 0 C424.38 0 848.76 0 1286 0 C1286 916.08 1286 1832.16 1286 2776 C861.62 2776 437.24 2776 0 2776 C0 1859.92 0 943.84 0 0 Z " fill="#D53B29" transform="translate(15075,0)"/>
<path d="M0 0 C424.38 0 848.76 0 1286 0 C1286 916.08 1286 1832.16 1286 2776 C861.62 2776 437.24 2776 0 2776 C0 1859.92 0 943.84 0 0 Z " fill="#D53B29" transform="translate(8909,0)"/>
<path d="M0 0 C424.38 0 848.76 0 1286 0 C1286 916.08 1286 1832.16 1286 2776 C861.62 2776 437.24 2776 0 2776 C0 1859.92 0 943.84 0 0 Z " fill="#D53B29" transform="translate(2764,0)"/>
<path d="M0 0 C418.77 0 837.54 0 1269 0 C1269 916.08 1269 1832.16 1269 2776 C850.23 2776 431.46 2776 0 2776 C0 1859.92 0 943.84 0 0 Z " fill="#D53B29" transform="translate(5845,0)"/>
<path d="M0 0 C361.35 0 722.7 0 1095 0 C1095 916.08 1095 1832.16 1095 2776 C733.65 2776 372.3 2776 0 2776 C0 1859.92 0 943.84 0 0 Z " fill="#D53B29" transform="translate(18157,0)"/>
<path d="M0 0 C208.89 0 417.78 0 633 0 C633 916.08 633 1832.16 633 2776 C424.11 2776 215.22 2776 0 2776 C0 1859.92 0 943.84 0 0 Z " fill="#D53B29" transform="translate(17524,0)"/>
<path d="M0 0 C208.89 0 417.78 0 633 0 C633 916.08 633 1832.16 633 2776 C424.11 2776 215.22 2776 0 2776 C0 1859.92 0 943.84 0 0 Z " fill="#D53B29" transform="translate(11358,0)"/>
<path d="M0 0 C208.56 0 417.12 0 632 0 C632 916.08 632 1832.16 632 2776 C423.44 2776 214.88 2776 0 2776 C0 1859.92 0 943.84 0 0 Z " fill="#D53B29" transform="translate(14443,0)"/>
<path d="M0 0 C208.56 0 417.12 0 632 0 C632 916.08 632 1832.16 632 2776 C423.44 2776 214.88 2776 0 2776 C0 1859.92 0 943.84 0 0 Z " fill="#D53B29" transform="translate(8277,0)"/>
<path d="M0 0 C208.56 0 417.12 0 632 0 C632 916.08 632 1832.16 632 2776 C423.44 2776 214.88 2776 0 2776 C0 1859.92 0 943.84 0 0 Z " fill="#D53B29" transform="translate(5213,0)"/>
<path d="M0 0 C208.56 0 417.12 0 632 0 C632 916.08 632 1832.16 632 2776 C423.44 2776 214.88 2776 0 2776 C0 1859.92 0 943.84 0 0 Z " fill="#D53B29" transform="translate(2132,0)"/>
<path d="M0 0 C182.49 0 364.98 0 553 0 C553 916.08 553 1832.16 553 2776 C370.51 2776 188.02 2776 0 2776 C0 1859.92 0 943.84 0 0 Z " fill="#D53B29" transform="translate(11991,0)"/>
<path d="M0 0 C181.5 0 363 0 550 0 C550 916.08 550 1832.16 550 2776 C368.5 2776 187 2776 0 2776 C0 1859.92 0 943.84 0 0 Z " fill="#D53B29" transform="translate(15075,0)"/>
<path d="M0 0 C181.5 0 363 0 550 0 C550 916.08 550 1832.16 550 2776 C368.5 2776 187 2776 0 2776 C0 1859.92 0 943.84 0 0 Z " fill="#D53B29" transform="translate(8909,0)"/>
<path d="M0 0 C181.5 0 363 0 550 0 C550 916.08 550 1832.16 550 2776 C368.5 2776 187 2776 0 2776 C0 1859.92 0 943.84 0 0 Z " fill="#D53B29" transform="translate(2764,0)"/>
<path d="M0 0 C175.89 0 351.78 0 533 0 C533 916.08 533 1832.16 533 2776 C357.11 2776 181.22 2776 0 2776 C0 1859.92 0 943.84 0 0 Z " fill="#D53B29" transform="translate(5845,0)"/>
<path d="M0 0 C173.58 0 347.16 0 526 0 C526 916.08 526 1832.16 526 2776 C352.42 2776 178.84 2776 0 2776 C0 1859.92 0 943.84 0 0 Z " fill="#FEFEFE" transform="translate(18726,0)"/>
<path d="M0 0 C151.14 0 302.28 0 458 0 C458 916.08 458 1832.16 458 2776 C306.86 2776 155.72 2776 0 2776 C0 1859.92 0 943.84 0 0 Z " fill="#FCFBFB" transform="translate(0,0)"/>
<path d="M0 0 C74.25 0 148.5 0 225 0 C225 916.08 225 1832.16 225 2776 C150.75 2776 76.5 2776 0 2776 C0 1859.92 0 943.84 0 0 Z " fill="#D53B29" transform="translate(18726,0)"/>
<path d="M0 0 C74.25 0 148.5 0 225 0 C225 916.08 225 1832.16 225 2776 C150.75 2776 76.5 2776 0 2776 C0 1859.92 0 943.84 0 0 Z " fill="#D53B29" transform="translate(17932,0)"/>
<path d="M0 0 C74.25 0 148.5 0 225 0 C225 916.08 225 1832.16 225 2776 C150.75 2776 76.5 2776 0 2776 C0 1859.92 0 943.84 0 0 Z " fill="#D53B29" transform="translate(15625,0)"/>
<path d="M0 0 C74.25 0 148.5 0 225 0 C225 916.08 225 1832.16 225 2776 C150.75 2776 76.5 2776 0 2776 C0 1859.92 0 943.84 0 0 Z " fill="#D53B29" transform="translate(12544,0)"/>
<path d="M0 0 C74.25 0 148.5 0 225 0 C225 916.08 225 1832.16 225 2776 C150.75 2776 76.5 2776 0 2776 C0 1859.92 0 943.84 0 0 Z " fill="#D53B29" transform="translate(11766,0)"/>
<path d="M0 0 C74.25 0 148.5 0 225 0 C225 916.08 225 1832.16 225 2776 C150.75 2776 76.5 2776 0 2776 C0 1859.92 0 943.84 0 0 Z " fill="#D53B29" transform="translate(9459,0)"/>
<path d="M0 0 C74.25 0 148.5 0 225 0 C225 916.08 225 1832.16 225 2776 C150.75 2776 76.5 2776 0 2776 C0 1859.92 0 943.84 0 0 Z " fill="#D53B29" transform="translate(6378,0)"/>
<path d="M0 0 C74.25 0 148.5 0 225 0 C225 916.08 225 1832.16 225 2776 C150.75 2776 76.5 2776 0 2776 C0 1859.92 0 943.84 0 0 Z " fill="#D53B29" transform="translate(3314,0)"/>
<path d="M0 0 C74.25 0 148.5 0 225 0 C225 916.08 225 1832.16 225 2776 C150.75 2776 76.5 2776 0 2776 C0 1859.92 0 943.84 0 0 Z " fill="#D53B29" transform="translate(2539,0)"/>
<path d="M0 0 C74.25 0 148.5 0 225 0 C225 916.08 225 1832.16 225 2776 C150.75 2776 76.5 2776 0 2776 C0 1859.92 0 943.84 0 0 Z " fill="#D53B29" transform="translate(233,0)"/>
<path d="M0 0 C73.92 0 147.84 0 224 0 C224 916.08 224 1832.16 224 2776 C150.08 2776 76.16 2776 0 2776 C0 1859.92 0 943.84 0 0 Z " fill="#D53B29" transform="translate(14851,0)"/>
<path d="M0 0 C73.92 0 147.84 0 224 0 C224 916.08 224 1832.16 224 2776 C150.08 2776 76.16 2776 0 2776 C0 1859.92 0 943.84 0 0 Z " fill="#D53B29" transform="translate(8685,0)"/>
<path d="M0 0 C73.92 0 147.84 0 224 0 C224 916.08 224 1832.16 224 2776 C150.08 2776 76.16 2776 0 2776 C0 1859.92 0 943.84 0 0 Z " fill="#D53B29" transform="translate(5621,0)"/>
<path d="M0 0 C67.65 0 135.3 0 205 0 C205 916.08 205 1832.16 205 2776 C137.35 2776 69.7 2776 0 2776 C0 1859.92 0 943.84 0 0 Z " fill="#FEFDFD" transform="translate(11991,0)"/>
<path d="M0 0 C66.66 0 133.32 0 202 0 C202 916.08 202 1832.16 202 2776 C135.34 2776 68.68 2776 0 2776 C0 1859.92 0 943.84 0 0 Z " fill="#FDFCFC" transform="translate(15075,0)"/>
<path d="M0 0 C65.67 0 131.34 0 199 0 C199 916.08 199 1832.16 199 2776 C133.33 2776 67.66 2776 0 2776 C0 1859.92 0 943.84 0 0 Z " fill="#FDFCFD" transform="translate(8909,0)"/>
<path d="M0 0 C63.69 0 127.38 0 193 0 C193 916.08 193 1832.16 193 2776 C129.31 2776 65.62 2776 0 2776 C0 1859.92 0 943.84 0 0 Z " fill="#FEFDFD" transform="translate(2764,0)"/>
<path d="M0 0 C61.05 0 122.1 0 185 0 C185 916.08 185 1832.16 185 2776 C123.95 2776 62.9 2776 0 2776 C0 1859.92 0 943.84 0 0 Z " fill="#FEFDFD" transform="translate(5845,0)"/>
<path d="M0 0 C60.39 0 120.78 0 183 0 C183 916.08 183 1832.16 183 2776 C122.61 2776 62.22 2776 0 2776 C0 1859.92 0 943.84 0 0 Z " fill="#FEFEFE" transform="translate(18157,0)"/>
<path d="M0 0 C60.39 0 120.78 0 183 0 C183 916.08 183 1832.16 183 2776 C122.61 2776 62.22 2776 0 2776 C0 1859.92 0 943.84 0 0 Z " fill="#FEFDFD" transform="translate(17749,0)"/>
<path d="M0 0 C60.39 0 120.78 0 183 0 C183 916.08 183 1832.16 183 2776 C122.61 2776 62.22 2776 0 2776 C0 1859.92 0 943.84 0 0 Z " fill="#FEFDFD" transform="translate(14668,0)"/>
<path d="M0 0 C60.39 0 120.78 0 183 0 C183 916.08 183 1832.16 183 2776 C122.61 2776 62.22 2776 0 2776 C0 1859.92 0 943.84 0 0 Z " fill="#FEFDFD" transform="translate(11583,0)"/>
<path d="M0 0 C60.39 0 120.78 0 183 0 C183 916.08 183 1832.16 183 2776 C122.61 2776 62.22 2776 0 2776 C0 1859.92 0 943.84 0 0 Z " fill="#FEFDFD" transform="translate(8502,0)"/>
<path d="M0 0 C60.39 0 120.78 0 183 0 C183 916.08 183 1832.16 183 2776 C122.61 2776 62.22 2776 0 2776 C0 1859.92 0 943.84 0 0 Z " fill="#FEFDFD" transform="translate(5438,0)"/>
<path d="M0 0 C60.06 0 120.12 0 182 0 C182 916.08 182 1832.16 182 2776 C121.94 2776 61.88 2776 0 2776 C0 1859.92 0 943.84 0 0 Z " fill="#FDFDFD" transform="translate(2357,0)"/>
<path d="M0 0 C57.42 0 114.84 0 174 0 C174 916.08 174 1832.16 174 2776 C116.58 2776 59.16 2776 0 2776 C0 1859.92 0 943.84 0 0 Z " fill="#FEFDFD" transform="translate(14269,0)"/>
<path d="M0 0 C57.42 0 114.84 0 174 0 C174 916.08 174 1832.16 174 2776 C116.58 2776 59.16 2776 0 2776 C0 1859.92 0 943.84 0 0 Z " fill="#FEFDFD" transform="translate(11184,0)"/>
<path d="M0 0 C57.42 0 114.84 0 174 0 C174 916.08 174 1832.16 174 2776 C116.58 2776 59.16 2776 0 2776 C0 1859.92 0 943.84 0 0 Z " fill="#FEFDFD" transform="translate(8103,0)"/>
<path d="M0 0 C57.42 0 114.84 0 174 0 C174 916.08 174 1832.16 174 2776 C116.58 2776 59.16 2776 0 2776 C0 1859.92 0 943.84 0 0 Z " fill="#FEFDFD" transform="translate(5039,0)"/>
<path d="M0 0 C57.42 0 114.84 0 174 0 C174 916.08 174 1832.16 174 2776 C116.58 2776 59.16 2776 0 2776 C0 1859.92 0 943.84 0 0 Z " fill="#FDFDFD" transform="translate(1958,0)"/>
<path d="M0 0 C57.09 0 114.18 0 173 0 C173 916.08 173 1832.16 173 2776 C115.91 2776 58.82 2776 0 2776 C0 1859.92 0 943.84 0 0 Z " fill="#FEFEFE" transform="translate(17351,0)"/>
<path d="M0 0 C53.46 0 106.92 0 162 0 C162 916.08 162 1832.16 162 2776 C108.54 2776 55.08 2776 0 2776 C0 1859.92 0 943.84 0 0 Z " fill="#FCFBFB" transform="translate(18564,0)"/>
<path d="M0 0 C53.46 0 106.92 0 162 0 C162 916.08 162 1832.16 162 2776 C108.54 2776 55.08 2776 0 2776 C0 1859.92 0 943.84 0 0 Z " fill="#FDFDFE" transform="translate(16964,0)"/>
<path d="M0 0 C53.46 0 106.92 0 162 0 C162 916.08 162 1832.16 162 2776 C108.54 2776 55.08 2776 0 2776 C0 1859.92 0 943.84 0 0 Z " fill="#FDFDFD" transform="translate(15850,0)"/>
<path d="M0 0 C53.46 0 106.92 0 162 0 C162 916.08 162 1832.16 162 2776 C108.54 2776 55.08 2776 0 2776 C0 1859.92 0 943.84 0 0 Z " fill="#FDFDFD" transform="translate(13883,0)"/>
<path d="M0 0 C53.46 0 106.92 0 162 0 C162 916.08 162 1832.16 162 2776 C108.54 2776 55.08 2776 0 2776 C0 1859.92 0 943.84 0 0 Z " fill="#FEFDFE" transform="translate(12769,0)"/>
<path d="M0 0 C53.46 0 106.92 0 162 0 C162 916.08 162 1832.16 162 2776 C108.54 2776 55.08 2776 0 2776 C0 1859.92 0 943.84 0 0 Z " fill="#FDFDFD" transform="translate(10798,0)"/>
<path d="M0 0 C53.46 0 106.92 0 162 0 C162 916.08 162 1832.16 162 2776 C108.54 2776 55.08 2776 0 2776 C0 1859.92 0 943.84 0 0 Z " fill="#FDFDFE" transform="translate(9684,0)"/>
<path d="M0 0 C53.46 0 106.92 0 162 0 C162 916.08 162 1832.16 162 2776 C108.54 2776 55.08 2776 0 2776 C0 1859.92 0 943.84 0 0 Z " fill="#FCFBFB" transform="translate(7716,0)"/>
<path d="M0 0 C53.46 0 106.92 0 162 0 C162 916.08 162 1832.16 162 2776 C108.54 2776 55.08 2776 0 2776 C0 1859.92 0 943.84 0 0 Z " fill="#FEFEFE" transform="translate(6603,0)"/>
<path d="M0 0 C53.46 0 106.92 0 162 0 C162 916.08 162 1832.16 162 2776 C108.54 2776 55.08 2776 0 2776 C0 1859.92 0 943.84 0 0 Z " fill="#FCFBFB" transform="translate(4652,0)"/>
<path d="M0 0 C53.46 0 106.92 0 162 0 C162 916.08 162 1832.16 162 2776 C108.54 2776 55.08 2776 0 2776 C0 1859.92 0 943.84 0 0 Z " fill="#FEFEFE" transform="translate(3539,0)"/>
<path d="M0 0 C53.46 0 106.92 0 162 0 C162 916.08 162 1832.16 162 2776 C108.54 2776 55.08 2776 0 2776 C0 1859.92 0 943.84 0 0 Z " fill="#FEFDFD" transform="translate(1571,0)"/>
<path d="M0 0 C53.46 0 106.92 0 162 0 C162 916.08 162 1832.16 162 2776 C108.54 2776 55.08 2776 0 2776 C0 1859.92 0 943.84 0 0 Z " fill="#FEFEFE" transform="translate(458,0)"/>
<path d="M0 0 C50.49 0 100.98 0 153 0 C153 916.08 153 1832.16 153 2776 C102.51 2776 52.02 2776 0 2776 C0 1859.92 0 943.84 0 0 Z " fill="#FEFDFD" transform="translate(16586,0)"/>
<path d="M0 0 C50.49 0 100.98 0 153 0 C153 916.08 153 1832.16 153 2776 C102.51 2776 52.02 2776 0 2776 C0 1859.92 0 943.84 0 0 Z " fill="#FDFDFE" transform="translate(13505,0)"/>
<path d="M0 0 C50.49 0 100.98 0 153 0 C153 916.08 153 1832.16 153 2776 C102.51 2776 52.02 2776 0 2776 C0 1859.92 0 943.84 0 0 Z " fill="#FEFDFD" transform="translate(10420,0)"/>
<path d="M0 0 C50.49 0 100.98 0 153 0 C153 916.08 153 1832.16 153 2776 C102.51 2776 52.02 2776 0 2776 C0 1859.92 0 943.84 0 0 Z " fill="#FDFDFE" transform="translate(7339,0)"/>
<path d="M0 0 C50.49 0 100.98 0 153 0 C153 916.08 153 1832.16 153 2776 C102.51 2776 52.02 2776 0 2776 C0 1859.92 0 943.84 0 0 Z " fill="#FDFDFD" transform="translate(4275,0)"/>
<path d="M0 0 C50.49 0 100.98 0 153 0 C153 916.08 153 1832.16 153 2776 C102.51 2776 52.02 2776 0 2776 C0 1859.92 0 943.84 0 0 Z " fill="#FEFEFE" transform="translate(1193,0)"/>
<path d="M0 0 C47.52 0 95.04 0 144 0 C144 916.08 144 1832.16 144 2776 C96.48 2776 48.96 2776 0 2776 C0 1859.92 0 943.84 0 0 Z " fill="#D63B29" transform="translate(19108,0)"/>
<path d="M0 0 C43.89 0 87.78 0 133 0 C133 916.08 133 1832.16 133 2776 C89.11 2776 45.22 2776 0 2776 C0 1859.92 0 943.84 0 0 Z " fill="#FAFAFC" transform="translate(3181,0)"/>
<path d="M0 0 C41.58 0 83.16 0 126 0 C126 916.08 126 1832.16 126 2776 C84.42 2776 42.84 2776 0 2776 C0 1859.92 0 943.84 0 0 Z " fill="#FAFAFC" transform="translate(9333,0)"/>
<path d="M0 0 C40.92 0 81.84 0 124 0 C124 916.08 124 1832.16 124 2776 C83.08 2776 42.16 2776 0 2776 C0 1859.92 0 943.84 0 0 Z " fill="#FCFBFB" transform="translate(16237,0)"/>
<path d="M0 0 C40.92 0 81.84 0 124 0 C124 916.08 124 1832.16 124 2776 C83.08 2776 42.16 2776 0 2776 C0 1859.92 0 943.84 0 0 Z " fill="#FEFDFD" transform="translate(13156,0)"/>
<path d="M0 0 C40.92 0 81.84 0 124 0 C124 916.08 124 1832.16 124 2776 C83.08 2776 42.16 2776 0 2776 C0 1859.92 0 943.84 0 0 Z " fill="#FAFAFC" transform="translate(12420,0)"/>
<path d="M0 0 C40.92 0 81.84 0 124 0 C124 916.08 124 1832.16 124 2776 C83.08 2776 42.16 2776 0 2776 C0 1859.92 0 943.84 0 0 Z " fill="#FCFBFB" transform="translate(10071,0)"/>
<path d="M0 0 C40.92 0 81.84 0 124 0 C124 916.08 124 1832.16 124 2776 C83.08 2776 42.16 2776 0 2776 C0 1859.92 0 943.84 0 0 Z " fill="#FEFEFD" transform="translate(6990,0)"/>
<path d="M0 0 C40.92 0 81.84 0 124 0 C124 916.08 124 1832.16 124 2776 C83.08 2776 42.16 2776 0 2776 C0 1859.92 0 943.84 0 0 Z " fill="#FAFAFC" transform="translate(6254,0)"/>
<path d="M0 0 C40.92 0 81.84 0 124 0 C124 916.08 124 1832.16 124 2776 C83.08 2776 42.16 2776 0 2776 C0 1859.92 0 943.84 0 0 Z " fill="#FEFEFE" transform="translate(3926,0)"/>
<path d="M0 0 C40.92 0 81.84 0 124 0 C124 916.08 124 1832.16 124 2776 C83.08 2776 42.16 2776 0 2776 C0 1859.92 0 943.84 0 0 Z " fill="#FEFEFE" transform="translate(845,0)"/>
<path d="M0 0 C40.59 0 81.18 0 123 0 C123 916.08 123 1832.16 123 2776 C82.41 2776 41.82 2776 0 2776 C0 1859.92 0 943.84 0 0 Z " fill="#FAFAFC" transform="translate(15502,0)"/>
<path d="M0 0 C35.97 0 71.94 0 109 0 C109 916.08 109 1832.16 109 2776 C73.03 2776 37.06 2776 0 2776 C0 1859.92 0 943.84 0 0 Z " fill="#D53B29" transform="translate(0,0)"/>
<path d="M0 0 C27.39 0 54.78 0 83 0 C83 916.08 83 1832.16 83 2776 C55.61 2776 28.22 2776 0 2776 C0 1859.92 0 943.84 0 0 Z " fill="#FEFDFD" transform="translate(15075,0)"/>
<path d="M0 0 C27.39 0 54.78 0 83 0 C83 916.08 83 1832.16 83 2776 C55.61 2776 28.22 2776 0 2776 C0 1859.92 0 943.84 0 0 Z " fill="#FEFDFD" transform="translate(8909,0)"/>
<path d="M0 0 C27.06 0 54.12 0 82 0 C82 916.08 82 1832.16 82 2776 C54.94 2776 27.88 2776 0 2776 C0 1859.92 0 943.84 0 0 Z " fill="#FEFEFE" transform="translate(11991,0)"/>
<path d="M0 0 C24.42 0 48.84 0 74 0 C74 916.08 74 1832.16 74 2776 C49.58 2776 25.16 2776 0 2776 C0 1859.92 0 943.84 0 0 Z " fill="#FEFEFE" transform="translate(17749,0)"/>
<path d="M0 0 C24.42 0 48.84 0 74 0 C74 916.08 74 1832.16 74 2776 C49.58 2776 25.16 2776 0 2776 C0 1859.92 0 943.84 0 0 Z " fill="#FEFEFE" transform="translate(14668,0)"/>
<path d="M0 0 C24.42 0 48.84 0 74 0 C74 916.08 74 1832.16 74 2776 C49.58 2776 25.16 2776 0 2776 C0 1859.92 0 943.84 0 0 Z " fill="#FEFEFE" transform="translate(11583,0)"/>
<path d="M0 0 C24.42 0 48.84 0 74 0 C74 916.08 74 1832.16 74 2776 C49.58 2776 25.16 2776 0 2776 C0 1859.92 0 943.84 0 0 Z " fill="#FEFDFE" transform="translate(8502,0)"/>
<path d="M0 0 C24.42 0 48.84 0 74 0 C74 916.08 74 1832.16 74 2776 C49.58 2776 25.16 2776 0 2776 C0 1859.92 0 943.84 0 0 Z " fill="#FEFDFE" transform="translate(5438,0)"/>
<path d="M0 0 C24.42 0 48.84 0 74 0 C74 916.08 74 1832.16 74 2776 C49.58 2776 25.16 2776 0 2776 C0 1859.92 0 943.84 0 0 Z " fill="#FEFEFE" transform="translate(2764,0)"/>
<path d="M0 0 C23.76 0 47.52 0 72 0 C72 916.08 72 1832.16 72 2776 C48.24 2776 24.48 2776 0 2776 C0 1859.92 0 943.84 0 0 Z " fill="#FDFCFC" transform="translate(5958,0)"/>
<path d="M0 0 C23.43 0 46.86 0 71 0 C71 916.08 71 1832.16 71 2776 C47.57 2776 24.14 2776 0 2776 C0 1859.92 0 943.84 0 0 Z " fill="#FEFDFD" transform="translate(18269,0)"/>
<path d="M0 0 C23.1 0 46.2 0 70 0 C70 916.08 70 1832.16 70 2776 C46.9 2776 23.8 2776 0 2776 C0 1859.92 0 943.84 0 0 Z " fill="#FEFEFE" transform="translate(17454,0)"/>
<path d="M0 0 C23.1 0 46.2 0 70 0 C70 916.08 70 1832.16 70 2776 C46.9 2776 23.8 2776 0 2776 C0 1859.92 0 943.84 0 0 Z " fill="#FCFCFD" transform="translate(14373,0)"/>
<path d="M0 0 C23.1 0 46.2 0 70 0 C70 916.08 70 1832.16 70 2776 C46.9 2776 23.8 2776 0 2776 C0 1859.92 0 943.84 0 0 Z " fill="#FEFEFE" transform="translate(11288,0)"/>
<path d="M0 0 C23.1 0 46.2 0 70 0 C70 916.08 70 1832.16 70 2776 C46.9 2776 23.8 2776 0 2776 C0 1859.92 0 943.84 0 0 Z " fill="#FDFDFD" transform="translate(8207,0)"/>
<path d="M0 0 C23.1 0 46.2 0 70 0 C70 916.08 70 1832.16 70 2776 C46.9 2776 23.8 2776 0 2776 C0 1859.92 0 943.84 0 0 Z " fill="#FDFDFD" transform="translate(5143,0)"/>
<path d="M0 0 C21.45 0 42.9 0 65 0 C65 916.08 65 1832.16 65 2776 C43.55 2776 22.1 2776 0 2776 C0 1859.92 0 943.84 0 0 Z " fill="#FEFDFC" transform="translate(13980,0)"/>
<path d="M0 0 C21.45 0 42.9 0 65 0 C65 916.08 65 1832.16 65 2776 C43.55 2776 22.1 2776 0 2776 C0 1859.92 0 943.84 0 0 Z " fill="#FEFDFD" transform="translate(10895,0)"/>
<path d="M0 0 C21.45 0 42.9 0 65 0 C65 916.08 65 1832.16 65 2776 C43.55 2776 22.1 2776 0 2776 C0 1859.92 0 943.84 0 0 Z " fill="#FEFEFE" transform="translate(6700,0)"/>
<path d="M0 0 C21.45 0 42.9 0 65 0 C65 916.08 65 1832.16 65 2776 C43.55 2776 22.1 2776 0 2776 C0 1859.92 0 943.84 0 0 Z " fill="#FEFEFE" transform="translate(3636,0)"/>
<path d="M0 0 C21.45 0 42.9 0 65 0 C65 916.08 65 1832.16 65 2776 C43.55 2776 22.1 2776 0 2776 C0 1859.92 0 943.84 0 0 Z " fill="#FEFEFE" transform="translate(1958,0)"/>
<path d="M0 0 C21.45 0 42.9 0 65 0 C65 916.08 65 1832.16 65 2776 C43.55 2776 22.1 2776 0 2776 C0 1859.92 0 943.84 0 0 Z " fill="#FEFEFE" transform="translate(555,0)"/>
<path d="M0 0 C21.12 0 42.24 0 64 0 C64 916.08 64 1832.16 64 2776 C42.88 2776 21.76 2776 0 2776 C0 1859.92 0 943.84 0 0 Z " fill="#FEFEFE" transform="translate(18662,0)"/>
<path d="M0 0 C21.12 0 42.24 0 64 0 C64 916.08 64 1832.16 64 2776 C42.88 2776 21.76 2776 0 2776 C0 1859.92 0 943.84 0 0 Z " fill="#FEFEFE" transform="translate(7814,0)"/>
<path d="M0 0 C21.12 0 42.24 0 64 0 C64 916.08 64 1832.16 64 2776 C42.88 2776 21.76 2776 0 2776 C0 1859.92 0 943.84 0 0 Z " fill="#FEFEFE" transform="translate(4750,0)"/>
<path d="M0 0 C20.79 0 41.58 0 63 0 C63 916.08 63 1832.16 63 2776 C42.21 2776 21.42 2776 0 2776 C0 1859.92 0 943.84 0 0 Z " fill="#FCFBFB" transform="translate(18951,0)"/>
<path d="M0 0 C20.13 0 40.26 0 61 0 C61 916.08 61 1832.16 61 2776 C40.87 2776 20.74 2776 0 2776 C0 1859.92 0 943.84 0 0 Z " fill="#FEFEFE" transform="translate(2478,0)"/>
<path d="M0 0 C19.47 0 38.94 0 59 0 C59 916.08 59 1832.16 59 2776 C39.53 2776 20.06 2776 0 2776 C0 1859.92 0 943.84 0 0 Z " fill="#FEFEFE" transform="translate(15850,0)"/>
<path d="M0 0 C19.47 0 38.94 0 59 0 C59 916.08 59 1832.16 59 2776 C39.53 2776 20.06 2776 0 2776 C0 1859.92 0 943.84 0 0 Z " fill="#FEFEFE" transform="translate(9684,0)"/>
<path d="M0 0 C19.47 0 38.94 0 59 0 C59 916.08 59 1832.16 59 2776 C39.53 2776 20.06 2776 0 2776 C0 1859.92 0 943.84 0 0 Z " fill="#FCFBFB" transform="translate(1193,0)"/>
<path d="M0 0 C18.48 0 36.96 0 56 0 C56 916.08 56 1832.16 56 2776 C37.52 2776 19.04 2776 0 2776 C0 1859.92 0 943.84 0 0 Z " fill="#FEFDFD" transform="translate(17070,0)"/>
<path d="M0 0 C18.48 0 36.96 0 56 0 C56 916.08 56 1832.16 56 2776 C37.52 2776 19.04 2776 0 2776 C0 1859.92 0 943.84 0 0 Z " fill="#FEFDFD" transform="translate(13602,0)"/>
<path d="M0 0 C18.48 0 36.96 0 56 0 C56 916.08 56 1832.16 56 2776 C37.52 2776 19.04 2776 0 2776 C0 1859.92 0 943.84 0 0 Z " fill="#FEFDFD" transform="translate(7436,0)"/>
<path d="M0 0 C18.48 0 36.96 0 56 0 C56 916.08 56 1832.16 56 2776 C37.52 2776 19.04 2776 0 2776 C0 1859.92 0 943.84 0 0 Z " fill="#FEFDFD" transform="translate(4372,0)"/>
<path d="M0 0 C18.15 0 36.3 0 55 0 C55 916.08 55 1832.16 55 2776 C36.85 2776 18.7 2776 0 2776 C0 1859.92 0 943.84 0 0 Z " fill="#FEFEFE" transform="translate(1678,0)"/>
<path d="M0 0 C16.83 0 33.66 0 51 0 C51 916.08 51 1832.16 51 2776 C34.17 2776 17.34 2776 0 2776 C0 1859.92 0 943.84 0 0 Z " fill="#FDFBFB" transform="translate(3181,0)"/>
<path d="M0 0 C16.5 0 33 0 50 0 C50 916.08 50 1832.16 50 2776 C33.5 2776 17 2776 0 2776 C0 1859.92 0 943.84 0 0 Z " fill="#FEFEFE" transform="translate(16586,0)"/>
<path d="M0 0 C16.5 0 33 0 50 0 C50 916.08 50 1832.16 50 2776 C33.5 2776 17 2776 0 2776 C0 1859.92 0 943.84 0 0 Z " fill="#FEFEFE" transform="translate(12769,0)"/>
<path d="M0 0 C16.5 0 33 0 50 0 C50 916.08 50 1832.16 50 2776 C33.5 2776 17 2776 0 2776 C0 1859.92 0 943.84 0 0 Z " fill="#FEFEFE" transform="translate(10420,0)"/>
<path d="M0 0 C15.51 0 31.02 0 47 0 C47 916.08 47 1832.16 47 2776 C31.49 2776 15.98 2776 0 2776 C0 1859.92 0 943.84 0 0 Z " fill="#FAFAFC" transform="translate(17823,0)"/>
<path d="M0 0 C15.51 0 31.02 0 47 0 C47 916.08 47 1832.16 47 2776 C31.49 2776 15.98 2776 0 2776 C0 1859.92 0 943.84 0 0 Z " fill="#FAFAFC" transform="translate(17023,0)"/>
<path d="M0 0 C15.51 0 31.02 0 47 0 C47 916.08 47 1832.16 47 2776 C31.49 2776 15.98 2776 0 2776 C0 1859.92 0 943.84 0 0 Z " fill="#FAFAFC" transform="translate(16636,0)"/>
<path d="M0 0 C15.51 0 31.02 0 47 0 C47 916.08 47 1832.16 47 2776 C31.49 2776 15.98 2776 0 2776 C0 1859.92 0 943.84 0 0 Z " fill="#FAFBFC" transform="translate(14742,0)"/>
<path d="M0 0 C15.51 0 31.02 0 47 0 C47 916.08 47 1832.16 47 2776 C31.49 2776 15.98 2776 0 2776 C0 1859.92 0 943.84 0 0 Z " fill="#FAFAFC" transform="translate(13555,0)"/>
<path d="M0 0 C15.51 0 31.02 0 47 0 C47 916.08 47 1832.16 47 2776 C31.49 2776 15.98 2776 0 2776 C0 1859.92 0 943.84 0 0 Z " fill="#FAFAFC" transform="translate(12819,0)"/>
<path d="M0 0 C15.51 0 31.02 0 47 0 C47 916.08 47 1832.16 47 2776 C31.49 2776 15.98 2776 0 2776 C0 1859.92 0 943.84 0 0 Z " fill="#FAFBFC" transform="translate(11657,0)"/>
<path d="M0 0 C15.51 0 31.02 0 47 0 C47 916.08 47 1832.16 47 2776 C31.49 2776 15.98 2776 0 2776 C0 1859.92 0 943.84 0 0 Z " fill="#FAFAFC" transform="translate(10470,0)"/>
<path d="M0 0 C15.51 0 31.02 0 47 0 C47 916.08 47 1832.16 47 2776 C31.49 2776 15.98 2776 0 2776 C0 1859.92 0 943.84 0 0 Z " fill="#FAFBFC" transform="translate(8576,0)"/>
<path d="M0 0 C15.51 0 31.02 0 47 0 C47 916.08 47 1832.16 47 2776 C31.49 2776 15.98 2776 0 2776 C0 1859.92 0 943.84 0 0 Z " fill="#FAFAFC" transform="translate(7389,0)"/>
<path d="M0 0 C15.51 0 31.02 0 47 0 C47 916.08 47 1832.16 47 2776 C31.49 2776 15.98 2776 0 2776 C0 1859.92 0 943.84 0 0 Z " fill="#FAFBFC" transform="translate(6653,0)"/>
<path d="M0 0 C15.51 0 31.02 0 47 0 C47 916.08 47 1832.16 47 2776 C31.49 2776 15.98 2776 0 2776 C0 1859.92 0 943.84 0 0 Z " fill="#FAFBFC" transform="translate(5512,0)"/>
<path d="M0 0 C15.51 0 31.02 0 47 0 C47 916.08 47 1832.16 47 2776 C31.49 2776 15.98 2776 0 2776 C0 1859.92 0 943.84 0 0 Z " fill="#FAFBFC" transform="translate(4325,0)"/>
<path d="M0 0 C15.51 0 31.02 0 47 0 C47 916.08 47 1832.16 47 2776 C31.49 2776 15.98 2776 0 2776 C0 1859.92 0 943.84 0 0 Z " fill="#FAFBFC" transform="translate(3589,0)"/>
<path d="M0 0 C15.51 0 31.02 0 47 0 C47 916.08 47 1832.16 47 2776 C31.49 2776 15.98 2776 0 2776 C0 1859.92 0 943.84 0 0 Z " fill="#FAFAFC" transform="translate(2838,0)"/>
<path d="M0 0 C15.51 0 31.02 0 47 0 C47 916.08 47 1832.16 47 2776 C31.49 2776 15.98 2776 0 2776 C0 1859.92 0 943.84 0 0 Z " fill="#FAFAFC" transform="translate(2023,0)"/>
<path d="M0 0 C15.51 0 31.02 0 47 0 C47 916.08 47 1832.16 47 2776 C31.49 2776 15.98 2776 0 2776 C0 1859.92 0 943.84 0 0 Z " fill="#FAFBFC" transform="translate(508,0)"/>
<path d="M0 0 C14.52 0 29.04 0 44 0 C44 916.08 44 1832.16 44 2776 C29.48 2776 14.96 2776 0 2776 C0 1859.92 0 943.84 0 0 Z " fill="#FEFDFD" transform="translate(16317,0)"/>
<path d="M0 0 C14.52 0 29.04 0 44 0 C44 916.08 44 1832.16 44 2776 C29.48 2776 14.96 2776 0 2776 C0 1859.92 0 943.84 0 0 Z " fill="#FEFDFC" transform="translate(13236,0)"/>
<path d="M0 0 C14.52 0 29.04 0 44 0 C44 916.08 44 1832.16 44 2776 C29.48 2776 14.96 2776 0 2776 C0 1859.92 0 943.84 0 0 Z " fill="#FEFDFD" transform="translate(10151,0)"/>
<path d="M0 0 C14.52 0 29.04 0 44 0 C44 916.08 44 1832.16 44 2776 C29.48 2776 14.96 2776 0 2776 C0 1859.92 0 943.84 0 0 Z " fill="#FEFDFE" transform="translate(9333,0)"/>
<path d="M0 0 C14.52 0 29.04 0 44 0 C44 916.08 44 1832.16 44 2776 C29.48 2776 14.96 2776 0 2776 C0 1859.92 0 943.84 0 0 Z " fill="#FEFDFC" transform="translate(7070,0)"/>
<path d="M0 0 C14.52 0 29.04 0 44 0 C44 916.08 44 1832.16 44 2776 C29.48 2776 14.96 2776 0 2776 C0 1859.92 0 943.84 0 0 Z " fill="#FEFCFC" transform="translate(4006,0)"/>
<path d="M0 0 C14.52 0 29.04 0 44 0 C44 916.08 44 1832.16 44 2776 C29.48 2776 14.96 2776 0 2776 C0 1859.92 0 943.84 0 0 Z " fill="#FBF9F9" transform="translate(925,0)"/>
<path d="M0 0 C14.52 0 29.04 0 44 0 C44 916.08 44 1832.16 44 2776 C29.48 2776 14.96 2776 0 2776 C0 1859.92 0 943.84 0 0 Z " fill="#FEFDFD" transform="translate(189,0)"/>
<path d="M0 0 C13.86 0 27.72 0 42 0 C42 916.08 42 1832.16 42 2776 C28.14 2776 14.28 2776 0 2776 C0 1859.92 0 943.84 0 0 Z " fill="#FDFBFB" transform="translate(12420,0)"/>
<path d="M0 0 C13.86 0 27.72 0 42 0 C42 916.08 42 1832.16 42 2776 C28.14 2776 14.28 2776 0 2776 C0 1859.92 0 943.84 0 0 Z " fill="#FDFBFB" transform="translate(6254,0)"/>
<path d="M0 0 C13.53 0 27.06 0 41 0 C41 916.08 41 1832.16 41 2776 C27.47 2776 13.94 2776 0 2776 C0 1859.92 0 943.84 0 0 Z " fill="#FEFEFE" transform="translate(15502,0)"/>
<path d="M0 0 C12.87 0 25.74 0 39 0 C39 916.08 39 1832.16 39 2776 C26.13 2776 13.26 2776 0 2776 C0 1859.92 0 943.84 0 0 Z " fill="#FEFEFE" transform="translate(2439,0)"/>
<path d="M0 0 C12.87 0 25.74 0 39 0 C39 916.08 39 1832.16 39 2776 C26.13 2776 13.26 2776 0 2776 C0 1859.92 0 943.84 0 0 Z " fill="#FEFEFE" transform="translate(1639,0)"/>
<path d="M0 0 C11.55 0 23.1 0 35 0 C35 916.08 35 1832.16 35 2776 C23.45 2776 11.9 2776 0 2776 C0 1859.92 0 943.84 0 0 Z " fill="#FEFEFE" transform="translate(15590,0)"/>
<path d="M0 0 C11.55 0 23.1 0 35 0 C35 916.08 35 1832.16 35 2776 C23.45 2776 11.9 2776 0 2776 C0 1859.92 0 943.84 0 0 Z " fill="#FEFEFE" transform="translate(12509,0)"/>
<path d="M0 0 C11.55 0 23.1 0 35 0 C35 916.08 35 1832.16 35 2776 C23.45 2776 11.9 2776 0 2776 C0 1859.92 0 943.84 0 0 Z " fill="#FEFEFE" transform="translate(9424,0)"/>
<path d="M0 0 C11.55 0 23.1 0 35 0 C35 916.08 35 1832.16 35 2776 C23.45 2776 11.9 2776 0 2776 C0 1859.92 0 943.84 0 0 Z " fill="#FEFEFE" transform="translate(6343,0)"/>
<path d="M0 0 C11.55 0 23.1 0 35 0 C35 916.08 35 1832.16 35 2776 C23.45 2776 11.9 2776 0 2776 C0 1859.92 0 943.84 0 0 Z " fill="#FEFEFE" transform="translate(3279,0)"/>
<path d="M0 0 C9.9 0 19.8 0 30 0 C30 916.08 30 1832.16 30 2776 C20.1 2776 10.2 2776 0 2776 C0 1859.92 0 943.84 0 0 Z " fill="#FEFEFF" transform="translate(19014,0)"/>
<path d="M0 0 C9.9 0 19.8 0 30 0 C30 916.08 30 1832.16 30 2776 C20.1 2776 10.2 2776 0 2776 C0 1859.92 0 943.84 0 0 Z " fill="#FEFEFF" transform="translate(18632,0)"/>
<path d="M0 0 C9.9 0 19.8 0 30 0 C30 916.08 30 1832.16 30 2776 C20.1 2776 10.2 2776 0 2776 C0 1859.92 0 943.84 0 0 Z " fill="#FEFEFE" transform="translate(18239,0)"/>
<path d="M0 0 C9.9 0 19.8 0 30 0 C30 916.08 30 1832.16 30 2776 C20.1 2776 10.2 2776 0 2776 C0 1859.92 0 943.84 0 0 Z " fill="#FEFEFF" transform="translate(17424,0)"/>
<path d="M0 0 C9.9 0 19.8 0 30 0 C30 916.08 30 1832.16 30 2776 C20.1 2776 10.2 2776 0 2776 C0 1859.92 0 943.84 0 0 Z " fill="#FEFEFE" transform="translate(16287,0)"/>
<path d="M0 0 C9.9 0 19.8 0 30 0 C30 916.08 30 1832.16 30 2776 C20.1 2776 10.2 2776 0 2776 C0 1859.92 0 943.84 0 0 Z " fill="#FEFEFE" transform="translate(15909,0)"/>
<path d="M0 0 C9.9 0 19.8 0 30 0 C30 916.08 30 1832.16 30 2776 C20.1 2776 10.2 2776 0 2776 C0 1859.92 0 943.84 0 0 Z " fill="#FEFEFF" transform="translate(15158,0)"/>
<path d="M0 0 C9.9 0 19.8 0 30 0 C30 916.08 30 1832.16 30 2776 C20.1 2776 10.2 2776 0 2776 C0 1859.92 0 943.84 0 0 Z " fill="#FEFEFE" transform="translate(14343,0)"/>
<path d="M0 0 C9.9 0 19.8 0 30 0 C30 916.08 30 1832.16 30 2776 C20.1 2776 10.2 2776 0 2776 C0 1859.92 0 943.84 0 0 Z " fill="#FEFEFF" transform="translate(13950,0)"/>
<path d="M0 0 C9.9 0 19.8 0 30 0 C30 916.08 30 1832.16 30 2776 C20.1 2776 10.2 2776 0 2776 C0 1859.92 0 943.84 0 0 Z " fill="#FEFEFF" transform="translate(13206,0)"/>
<path d="M0 0 C9.9 0 19.8 0 30 0 C30 916.08 30 1832.16 30 2776 C20.1 2776 10.2 2776 0 2776 C0 1859.92 0 943.84 0 0 Z " fill="#FEFEFE" transform="translate(12073,0)"/>
<path d="M0 0 C9.9 0 19.8 0 30 0 C30 916.08 30 1832.16 30 2776 C20.1 2776 10.2 2776 0 2776 C0 1859.92 0 943.84 0 0 Z " fill="#FEFEFF" transform="translate(11258,0)"/>
<path d="M0 0 C9.9 0 19.8 0 30 0 C30 916.08 30 1832.16 30 2776 C20.1 2776 10.2 2776 0 2776 C0 1859.92 0 943.84 0 0 Z " fill="#FEFEFE" transform="translate(10865,0)"/>
<path d="M0 0 C9.9 0 19.8 0 30 0 C30 916.08 30 1832.16 30 2776 C20.1 2776 10.2 2776 0 2776 C0 1859.92 0 943.84 0 0 Z " fill="#FEFEFE" transform="translate(10121,0)"/>
<path d="M0 0 C9.9 0 19.8 0 30 0 C30 916.08 30 1832.16 30 2776 C20.1 2776 10.2 2776 0 2776 C0 1859.92 0 943.84 0 0 Z " fill="#FEFEFE" transform="translate(9743,0)"/>
<path d="M0 0 C9.9 0 19.8 0 30 0 C30 916.08 30 1832.16 30 2776 C20.1 2776 10.2 2776 0 2776 C0 1859.92 0 943.84 0 0 Z " fill="#FEFEFF" transform="translate(8992,0)"/>
<path d="M0 0 C9.9 0 19.8 0 30 0 C30 916.08 30 1832.16 30 2776 C20.1 2776 10.2 2776 0 2776 C0 1859.92 0 943.84 0 0 Z " fill="#FEFEFE" transform="translate(8177,0)"/>
<path d="M0 0 C9.9 0 19.8 0 30 0 C30 916.08 30 1832.16 30 2776 C20.1 2776 10.2 2776 0 2776 C0 1859.92 0 943.84 0 0 Z " fill="#FEFEFF" transform="translate(7784,0)"/>
<path d="M0 0 C9.9 0 19.8 0 30 0 C30 916.08 30 1832.16 30 2776 C20.1 2776 10.2 2776 0 2776 C0 1859.92 0 943.84 0 0 Z " fill="#FEFEFF" transform="translate(7040,0)"/>
<path d="M0 0 C9.9 0 19.8 0 30 0 C30 916.08 30 1832.16 30 2776 C20.1 2776 10.2 2776 0 2776 C0 1859.92 0 943.84 0 0 Z " fill="#FEFEFE" transform="translate(5928,0)"/>
<path d="M0 0 C9.9 0 19.8 0 30 0 C30 916.08 30 1832.16 30 2776 C20.1 2776 10.2 2776 0 2776 C0 1859.92 0 943.84 0 0 Z " fill="#FEFEFE" transform="translate(5113,0)"/>
<path d="M0 0 C9.9 0 19.8 0 30 0 C30 916.08 30 1832.16 30 2776 C20.1 2776 10.2 2776 0 2776 C0 1859.92 0 943.84 0 0 Z " fill="#FEFEFF" transform="translate(4720,0)"/>
<path d="M0 0 C9.9 0 19.8 0 30 0 C30 916.08 30 1832.16 30 2776 C20.1 2776 10.2 2776 0 2776 C0 1859.92 0 943.84 0 0 Z " fill="#FEFEFF" transform="translate(3976,0)"/>
<path d="M0 0 C9.9 0 19.8 0 30 0 C30 916.08 30 1832.16 30 2776 C20.1 2776 10.2 2776 0 2776 C0 1859.92 0 943.84 0 0 Z " fill="#FEFEFF" transform="translate(1252,0)"/>
<path d="M0 0 C9.9 0 19.8 0 30 0 C30 916.08 30 1832.16 30 2776 C20.1 2776 10.2 2776 0 2776 C0 1859.92 0 943.84 0 0 Z " fill="#FEFEFE" transform="translate(895,0)"/>
<path d="M0 0 C9.9 0 19.8 0 30 0 C30 916.08 30 1832.16 30 2776 C20.1 2776 10.2 2776 0 2776 C0 1859.92 0 943.84 0 0 Z " fill="#FEFEFE" transform="translate(159,0)"/>
<path d="M0 0 C2.97 0 5.94 0 9 0 C9 916.08 9 1832.16 9 2776 C6.03 2776 3.06 2776 0 2776 C0 1859.92 0 943.84 0 0 Z " fill="#23285E" transform="translate(19044,0)"/>
<path d="M0 0 C2.97 0 5.94 0 9 0 C9 916.08 9 1832.16 9 2776 C6.03 2776 3.06 2776 0 2776 C0 1859.92 0 943.84 0 0 Z " fill="#23285E" transform="translate(18662,0)"/>
<path d="M0 0 C2.97 0 5.94 0 9 0 C9 916.08 9 1832.16 9 2776 C6.03 2776 3.06 2776 0 2776 C0 1859.92 0 943.84 0 0 Z " fill="#23285F" transform="translate(18269,0)"/>
<path d="M0 0 C2.97 0 5.94 0 9 0 C9 916.08 9 1832.16 9 2776 C6.03 2776 3.06 2776 0 2776 C0 1859.92 0 943.84 0 0 Z " fill="#23285E" transform="translate(18230,0)"/>
<path d="M0 0 C2.97 0 5.94 0 9 0 C9 916.08 9 1832.16 9 2776 C6.03 2776 3.06 2776 0 2776 C0 1859.92 0 943.84 0 0 Z " fill="#23285F" transform="translate(17454,0)"/>
<path d="M0 0 C2.97 0 5.94 0 9 0 C9 916.08 9 1832.16 9 2776 C6.03 2776 3.06 2776 0 2776 C0 1859.92 0 943.84 0 0 Z " fill="#23285F" transform="translate(17415,0)"/>
<path d="M0 0 C2.97 0 5.94 0 9 0 C9 916.08 9 1832.16 9 2776 C6.03 2776 3.06 2776 0 2776 C0 1859.92 0 943.84 0 0 Z " fill="#23285F" transform="translate(16317,0)"/>
<path d="M0 0 C2.97 0 5.94 0 9 0 C9 916.08 9 1832.16 9 2776 C6.03 2776 3.06 2776 0 2776 C0 1859.92 0 943.84 0 0 Z " fill="#23285E" transform="translate(15900,0)"/>
<path d="M0 0 C2.97 0 5.94 0 9 0 C9 916.08 9 1832.16 9 2776 C6.03 2776 3.06 2776 0 2776 C0 1859.92 0 943.84 0 0 Z " fill="#23285F" transform="translate(15149,0)"/>
<path d="M0 0 C2.97 0 5.94 0 9 0 C9 916.08 9 1832.16 9 2776 C6.03 2776 3.06 2776 0 2776 C0 1859.92 0 943.84 0 0 Z " fill="#23285E" transform="translate(14334,0)"/>
<path d="M0 0 C2.97 0 5.94 0 9 0 C9 916.08 9 1832.16 9 2776 C6.03 2776 3.06 2776 0 2776 C0 1859.92 0 943.84 0 0 Z " fill="#23285F" transform="translate(13980,0)"/>
<path d="M0 0 C2.97 0 5.94 0 9 0 C9 916.08 9 1832.16 9 2776 C6.03 2776 3.06 2776 0 2776 C0 1859.92 0 943.84 0 0 Z " fill="#23285F" transform="translate(13236,0)"/>
<path d="M0 0 C2.97 0 5.94 0 9 0 C9 916.08 9 1832.16 9 2776 C6.03 2776 3.06 2776 0 2776 C0 1859.92 0 943.84 0 0 Z " fill="#23285F" transform="translate(13197,0)"/>
<path d="M0 0 C2.97 0 5.94 0 9 0 C9 916.08 9 1832.16 9 2776 C6.03 2776 3.06 2776 0 2776 C0 1859.92 0 943.84 0 0 Z " fill="#23285F" transform="translate(12103,0)"/>
<path d="M0 0 C2.97 0 5.94 0 9 0 C9 916.08 9 1832.16 9 2776 C6.03 2776 3.06 2776 0 2776 C0 1859.92 0 943.84 0 0 Z " fill="#23285F" transform="translate(12064,0)"/>
<path d="M0 0 C2.97 0 5.94 0 9 0 C9 916.08 9 1832.16 9 2776 C6.03 2776 3.06 2776 0 2776 C0 1859.92 0 943.84 0 0 Z " fill="#23285F" transform="translate(11288,0)"/>
<path d="M0 0 C2.97 0 5.94 0 9 0 C9 916.08 9 1832.16 9 2776 C6.03 2776 3.06 2776 0 2776 C0 1859.92 0 943.84 0 0 Z " fill="#23285E" transform="translate(11249,0)"/>
<path d="M0 0 C2.97 0 5.94 0 9 0 C9 916.08 9 1832.16 9 2776 C6.03 2776 3.06 2776 0 2776 C0 1859.92 0 943.84 0 0 Z " fill="#23285F" transform="translate(10895,0)"/>
<path d="M0 0 C2.97 0 5.94 0 9 0 C9 916.08 9 1832.16 9 2776 C6.03 2776 3.06 2776 0 2776 C0 1859.92 0 943.84 0 0 Z " fill="#23285E" transform="translate(10151,0)"/>
<path d="M0 0 C2.97 0 5.94 0 9 0 C9 916.08 9 1832.16 9 2776 C6.03 2776 3.06 2776 0 2776 C0 1859.92 0 943.84 0 0 Z " fill="#23295E" transform="translate(9734,0)"/>
<path d="M0 0 C2.97 0 5.94 0 9 0 C9 916.08 9 1832.16 9 2776 C6.03 2776 3.06 2776 0 2776 C0 1859.92 0 943.84 0 0 Z " fill="#23285F" transform="translate(8983,0)"/>
<path d="M0 0 C2.97 0 5.94 0 9 0 C9 916.08 9 1832.16 9 2776 C6.03 2776 3.06 2776 0 2776 C0 1859.92 0 943.84 0 0 Z " fill="#23285F" transform="translate(8168,0)"/>
<path d="M0 0 C2.97 0 5.94 0 9 0 C9 916.08 9 1832.16 9 2776 C6.03 2776 3.06 2776 0 2776 C0 1859.92 0 943.84 0 0 Z " fill="#23285F" transform="translate(7814,0)"/>
<path d="M0 0 C2.97 0 5.94 0 9 0 C9 916.08 9 1832.16 9 2776 C6.03 2776 3.06 2776 0 2776 C0 1859.92 0 943.84 0 0 Z " fill="#23285E" transform="translate(7070,0)"/>
<path d="M0 0 C2.97 0 5.94 0 9 0 C9 916.08 9 1832.16 9 2776 C6.03 2776 3.06 2776 0 2776 C0 1859.92 0 943.84 0 0 Z " fill="#23285F" transform="translate(7031,0)"/>
<path d="M0 0 C2.97 0 5.94 0 9 0 C9 916.08 9 1832.16 9 2776 C6.03 2776 3.06 2776 0 2776 C0 1859.92 0 943.84 0 0 Z " fill="#23285E" transform="translate(5919,0)"/>
<path d="M0 0 C2.97 0 5.94 0 9 0 C9 916.08 9 1832.16 9 2776 C6.03 2776 3.06 2776 0 2776 C0 1859.92 0 943.84 0 0 Z " fill="#23285F" transform="translate(5104,0)"/>
<path d="M0 0 C2.97 0 5.94 0 9 0 C9 916.08 9 1832.16 9 2776 C6.03 2776 3.06 2776 0 2776 C0 1859.92 0 943.84 0 0 Z " fill="#23285E" transform="translate(4750,0)"/>
<path d="M0 0 C2.97 0 5.94 0 9 0 C9 916.08 9 1832.16 9 2776 C6.03 2776 3.06 2776 0 2776 C0 1859.92 0 943.84 0 0 Z " fill="#23285E" transform="translate(4006,0)"/>
<path d="M0 0 C2.97 0 5.94 0 9 0 C9 916.08 9 1832.16 9 2776 C6.03 2776 3.06 2776 0 2776 C0 1859.92 0 943.84 0 0 Z " fill="#23285E" transform="translate(3967,0)"/>
<path d="M0 0 C2.97 0 5.94 0 9 0 C9 916.08 9 1832.16 9 2776 C6.03 2776 3.06 2776 0 2776 C0 1859.92 0 943.84 0 0 Z " fill="#23295F" transform="translate(2469,0)"/>
<path d="M0 0 C2.97 0 5.94 0 9 0 C9 916.08 9 1832.16 9 2776 C6.03 2776 3.06 2776 0 2776 C0 1859.92 0 943.84 0 0 Z " fill="#23285E" transform="translate(1669,0)"/>
<path d="M0 0 C2.97 0 5.94 0 9 0 C9 916.08 9 1832.16 9 2776 C6.03 2776 3.06 2776 0 2776 C0 1859.92 0 943.84 0 0 Z " fill="#23285F" transform="translate(1630,0)"/>
<path d="M0 0 C2.97 0 5.94 0 9 0 C9 916.08 9 1832.16 9 2776 C6.03 2776 3.06 2776 0 2776 C0 1859.92 0 943.84 0 0 Z " fill="#23285E" transform="translate(1282,0)"/>
<path d="M0 0 C2.97 0 5.94 0 9 0 C9 916.08 9 1832.16 9 2776 C6.03 2776 3.06 2776 0 2776 C0 1859.92 0 943.84 0 0 Z " fill="#23285F" transform="translate(886,0)"/>
<path d="M0 0 C2.97 0 5.94 0 9 0 C9 916.08 9 1832.16 9 2776 C6.03 2776 3.06 2776 0 2776 C0 1859.92 0 943.84 0 0 Z " fill="#23285F" transform="translate(189,0)"/>
<path d="M0 0 C2.64 0 5.28 0 8 0 C8 916.08 8 1832.16 8 2776 C5.36 2776 2.72 2776 0 2776 C0 1859.92 0 943.84 0 0 Z " fill="#151A54" transform="translate(19006,0)"/>
<path d="M0 0 C2.64 0 5.28 0 8 0 C8 916.08 8 1832.16 8 2776 C5.36 2776 2.72 2776 0 2776 C0 1859.92 0 943.84 0 0 Z " fill="#171C56" transform="translate(18624,0)"/>
<path d="M0 0 C2.64 0 5.28 0 8 0 C8 916.08 8 1832.16 8 2776 C5.36 2776 2.72 2776 0 2776 C0 1859.92 0 943.84 0 0 Z " fill="#121852" transform="translate(17862,0)"/>
<path d="M0 0 C2.64 0 5.28 0 8 0 C8 916.08 8 1832.16 8 2776 C5.36 2776 2.72 2776 0 2776 C0 1859.92 0 943.84 0 0 Z " fill="#121850" transform="translate(17823,0)"/>
<path d="M0 0 C2.64 0 5.28 0 8 0 C8 916.08 8 1832.16 8 2776 C5.36 2776 2.72 2776 0 2776 C0 1859.92 0 943.84 0 0 Z " fill="#161B55" transform="translate(17062,0)"/>
<path d="M0 0 C2.64 0 5.28 0 8 0 C8 916.08 8 1832.16 8 2776 C5.36 2776 2.72 2776 0 2776 C0 1859.92 0 943.84 0 0 Z " fill="#121851" transform="translate(17023,0)"/>
<path d="M0 0 C2.64 0 5.28 0 8 0 C8 916.08 8 1832.16 8 2776 C5.36 2776 2.72 2776 0 2776 C0 1859.92 0 943.84 0 0 Z " fill="#121851" transform="translate(16675,0)"/>
<path d="M0 0 C2.64 0 5.28 0 8 0 C8 916.08 8 1832.16 8 2776 C5.36 2776 2.72 2776 0 2776 C0 1859.92 0 943.84 0 0 Z " fill="#121852" transform="translate(16636,0)"/>
<path d="M0 0 C2.64 0 5.28 0 8 0 C8 916.08 8 1832.16 8 2776 C5.36 2776 2.72 2776 0 2776 C0 1859.92 0 943.84 0 0 Z " fill="#131852" transform="translate(16279,0)"/>
<path d="M0 0 C2.64 0 5.28 0 8 0 C8 916.08 8 1832.16 8 2776 C5.36 2776 2.72 2776 0 2776 C0 1859.92 0 943.84 0 0 Z " fill="#141952" transform="translate(15939,0)"/>
<path d="M0 0 C2.64 0 5.28 0 8 0 C8 916.08 8 1832.16 8 2776 C5.36 2776 2.72 2776 0 2776 C0 1859.92 0 943.84 0 0 Z " fill="#121852" transform="translate(15582,0)"/>
<path d="M0 0 C2.64 0 5.28 0 8 0 C8 916.08 8 1832.16 8 2776 C5.36 2776 2.72 2776 0 2776 C0 1859.92 0 943.84 0 0 Z " fill="#121851" transform="translate(15543,0)"/>
<path d="M0 0 C2.64 0 5.28 0 8 0 C8 916.08 8 1832.16 8 2776 C5.36 2776 2.72 2776 0 2776 C0 1859.92 0 943.84 0 0 Z " fill="#161B54" transform="translate(15188,0)"/>
<path d="M0 0 C2.64 0 5.28 0 8 0 C8 916.08 8 1832.16 8 2776 C5.36 2776 2.72 2776 0 2776 C0 1859.92 0 943.84 0 0 Z " fill="#141A52" transform="translate(14781,0)"/>
<path d="M0 0 C2.64 0 5.28 0 8 0 C8 916.08 8 1832.16 8 2776 C5.36 2776 2.72 2776 0 2776 C0 1859.92 0 943.84 0 0 Z " fill="#121852" transform="translate(14742,0)"/>
<path d="M0 0 C2.64 0 5.28 0 8 0 C8 916.08 8 1832.16 8 2776 C5.36 2776 2.72 2776 0 2776 C0 1859.92 0 943.84 0 0 Z " fill="#161C54" transform="translate(14373,0)"/>
<path d="M0 0 C2.64 0 5.28 0 8 0 C8 916.08 8 1832.16 8 2776 C5.36 2776 2.72 2776 0 2776 C0 1859.92 0 943.84 0 0 Z " fill="#151A54" transform="translate(13942,0)"/>
<path d="M0 0 C2.64 0 5.28 0 8 0 C8 916.08 8 1832.16 8 2776 C5.36 2776 2.72 2776 0 2776 C0 1859.92 0 943.84 0 0 Z " fill="#141953" transform="translate(13594,0)"/>
<path d="M0 0 C2.64 0 5.28 0 8 0 C8 916.08 8 1832.16 8 2776 C5.36 2776 2.72 2776 0 2776 C0 1859.92 0 943.84 0 0 Z " fill="#121851" transform="translate(13555,0)"/>
<path d="M0 0 C2.64 0 5.28 0 8 0 C8 916.08 8 1832.16 8 2776 C5.36 2776 2.72 2776 0 2776 C0 1859.92 0 943.84 0 0 Z " fill="#121852" transform="translate(12858,0)"/>
<path d="M0 0 C2.64 0 5.28 0 8 0 C8 916.08 8 1832.16 8 2776 C5.36 2776 2.72 2776 0 2776 C0 1859.92 0 943.84 0 0 Z " fill="#151A53" transform="translate(12819,0)"/>
<path d="M0 0 C2.64 0 5.28 0 8 0 C8 916.08 8 1832.16 8 2776 C5.36 2776 2.72 2776 0 2776 C0 1859.92 0 943.84 0 0 Z " fill="#151A53" transform="translate(12501,0)"/>
<path d="M0 0 C2.64 0 5.28 0 8 0 C8 916.08 8 1832.16 8 2776 C5.36 2776 2.72 2776 0 2776 C0 1859.92 0 943.84 0 0 Z " fill="#121852" transform="translate(12462,0)"/>
<path d="M0 0 C2.64 0 5.28 0 8 0 C8 916.08 8 1832.16 8 2776 C5.36 2776 2.72 2776 0 2776 C0 1859.92 0 943.84 0 0 Z " fill="#121852" transform="translate(11696,0)"/>
<path d="M0 0 C2.64 0 5.28 0 8 0 C8 916.08 8 1832.16 8 2776 C5.36 2776 2.72 2776 0 2776 C0 1859.92 0 943.84 0 0 Z " fill="#121851" transform="translate(11657,0)"/>
<path d="M0 0 C2.64 0 5.28 0 8 0 C8 916.08 8 1832.16 8 2776 C5.36 2776 2.72 2776 0 2776 C0 1859.92 0 943.84 0 0 Z " fill="#121850" transform="translate(10857,0)"/>
<path d="M0 0 C2.64 0 5.28 0 8 0 C8 916.08 8 1832.16 8 2776 C5.36 2776 2.72 2776 0 2776 C0 1859.92 0 943.84 0 0 Z " fill="#121850" transform="translate(10509,0)"/>
<path d="M0 0 C2.64 0 5.28 0 8 0 C8 916.08 8 1832.16 8 2776 C5.36 2776 2.72 2776 0 2776 C0 1859.92 0 943.84 0 0 Z " fill="#121852" transform="translate(10470,0)"/>
<path d="M0 0 C2.64 0 5.28 0 8 0 C8 916.08 8 1832.16 8 2776 C5.36 2776 2.72 2776 0 2776 C0 1859.92 0 943.84 0 0 Z " fill="#141A53" transform="translate(10113,0)"/>
<path d="M0 0 C2.64 0 5.28 0 8 0 C8 916.08 8 1832.16 8 2776 C5.36 2776 2.72 2776 0 2776 C0 1859.92 0 943.84 0 0 Z " fill="#121851" transform="translate(9773,0)"/>
<path d="M0 0 C2.64 0 5.28 0 8 0 C8 916.08 8 1832.16 8 2776 C5.36 2776 2.72 2776 0 2776 C0 1859.92 0 943.84 0 0 Z " fill="#121852" transform="translate(9416,0)"/>
<path d="M0 0 C2.64 0 5.28 0 8 0 C8 916.08 8 1832.16 8 2776 C5.36 2776 2.72 2776 0 2776 C0 1859.92 0 943.84 0 0 Z " fill="#121851" transform="translate(9377,0)"/>
<path d="M0 0 C2.64 0 5.28 0 8 0 C8 916.08 8 1832.16 8 2776 C5.36 2776 2.72 2776 0 2776 C0 1859.92 0 943.84 0 0 Z " fill="#141A53" transform="translate(9022,0)"/>
<path d="M0 0 C2.64 0 5.28 0 8 0 C8 916.08 8 1832.16 8 2776 C5.36 2776 2.72 2776 0 2776 C0 1859.92 0 943.84 0 0 Z " fill="#161B53" transform="translate(8615,0)"/>
<path d="M0 0 C2.64 0 5.28 0 8 0 C8 916.08 8 1832.16 8 2776 C5.36 2776 2.72 2776 0 2776 C0 1859.92 0 943.84 0 0 Z " fill="#121852" transform="translate(8576,0)"/>
<path d="M0 0 C2.64 0 5.28 0 8 0 C8 916.08 8 1832.16 8 2776 C5.36 2776 2.72 2776 0 2776 C0 1859.92 0 943.84 0 0 Z " fill="#151B53" transform="translate(8207,0)"/>
<path d="M0 0 C2.64 0 5.28 0 8 0 C8 916.08 8 1832.16 8 2776 C5.36 2776 2.72 2776 0 2776 C0 1859.92 0 943.84 0 0 Z " fill="#161B55" transform="translate(7776,0)"/>
<path d="M0 0 C2.64 0 5.28 0 8 0 C8 916.08 8 1832.16 8 2776 C5.36 2776 2.72 2776 0 2776 C0 1859.92 0 943.84 0 0 Z " fill="#151A54" transform="translate(7428,0)"/>
<path d="M0 0 C2.64 0 5.28 0 8 0 C8 916.08 8 1832.16 8 2776 C5.36 2776 2.72 2776 0 2776 C0 1859.92 0 943.84 0 0 Z " fill="#131851" transform="translate(7389,0)"/>
<path d="M0 0 C2.64 0 5.28 0 8 0 C8 916.08 8 1832.16 8 2776 C5.36 2776 2.72 2776 0 2776 C0 1859.92 0 943.84 0 0 Z " fill="#121852" transform="translate(6692,0)"/>
<path d="M0 0 C2.64 0 5.28 0 8 0 C8 916.08 8 1832.16 8 2776 C5.36 2776 2.72 2776 0 2776 C0 1859.92 0 943.84 0 0 Z " fill="#141952" transform="translate(6653,0)"/>
<path d="M0 0 C2.64 0 5.28 0 8 0 C8 916.08 8 1832.16 8 2776 C5.36 2776 2.72 2776 0 2776 C0 1859.92 0 943.84 0 0 Z " fill="#161C54" transform="translate(6335,0)"/>
<path d="M0 0 C2.64 0 5.28 0 8 0 C8 916.08 8 1832.16 8 2776 C5.36 2776 2.72 2776 0 2776 C0 1859.92 0 943.84 0 0 Z " fill="#121852" transform="translate(6296,0)"/>
<path d="M0 0 C2.64 0 5.28 0 8 0 C8 916.08 8 1832.16 8 2776 C5.36 2776 2.72 2776 0 2776 C0 1859.92 0 943.84 0 0 Z " fill="#131853" transform="translate(5958,0)"/>
<path d="M0 0 C2.64 0 5.28 0 8 0 C8 916.08 8 1832.16 8 2776 C5.36 2776 2.72 2776 0 2776 C0 1859.92 0 943.84 0 0 Z " fill="#171C54" transform="translate(5551,0)"/>
<path d="M0 0 C2.64 0 5.28 0 8 0 C8 916.08 8 1832.16 8 2776 C5.36 2776 2.72 2776 0 2776 C0 1859.92 0 943.84 0 0 Z " fill="#121852" transform="translate(5512,0)"/>
<path d="M0 0 C2.64 0 5.28 0 8 0 C8 916.08 8 1832.16 8 2776 C5.36 2776 2.72 2776 0 2776 C0 1859.92 0 943.84 0 0 Z " fill="#141953" transform="translate(5143,0)"/>
<path d="M0 0 C2.64 0 5.28 0 8 0 C8 916.08 8 1832.16 8 2776 C5.36 2776 2.72 2776 0 2776 C0 1859.92 0 943.84 0 0 Z " fill="#171C56" transform="translate(4712,0)"/>
<path d="M0 0 C2.64 0 5.28 0 8 0 C8 916.08 8 1832.16 8 2776 C5.36 2776 2.72 2776 0 2776 C0 1859.92 0 943.84 0 0 Z " fill="#161B54" transform="translate(4364,0)"/>
<path d="M0 0 C2.64 0 5.28 0 8 0 C8 916.08 8 1832.16 8 2776 C5.36 2776 2.72 2776 0 2776 C0 1859.92 0 943.84 0 0 Z " fill="#121851" transform="translate(4325,0)"/>
<path d="M0 0 C2.64 0 5.28 0 8 0 C8 916.08 8 1832.16 8 2776 C5.36 2776 2.72 2776 0 2776 C0 1859.92 0 943.84 0 0 Z " fill="#121852" transform="translate(3628,0)"/>
<path d="M0 0 C2.64 0 5.28 0 8 0 C8 916.08 8 1832.16 8 2776 C5.36 2776 2.72 2776 0 2776 C0 1859.92 0 943.84 0 0 Z " fill="#131851" transform="translate(3589,0)"/>
<path d="M0 0 C2.64 0 5.28 0 8 0 C8 916.08 8 1832.16 8 2776 C5.36 2776 2.72 2776 0 2776 C0 1859.92 0 943.84 0 0 Z " fill="#171C54" transform="translate(3271,0)"/>
<path d="M0 0 C2.64 0 5.28 0 8 0 C8 916.08 8 1832.16 8 2776 C5.36 2776 2.72 2776 0 2776 C0 1859.92 0 943.84 0 0 Z " fill="#121852" transform="translate(3232,0)"/>
<path d="M0 0 C2.64 0 5.28 0 8 0 C8 916.08 8 1832.16 8 2776 C5.36 2776 2.72 2776 0 2776 C0 1859.92 0 943.84 0 0 Z " fill="#121851" transform="translate(2877,0)"/>
<path d="M0 0 C2.64 0 5.28 0 8 0 C8 916.08 8 1832.16 8 2776 C5.36 2776 2.72 2776 0 2776 C0 1859.92 0 943.84 0 0 Z " fill="#151A53" transform="translate(2838,0)"/>
<path d="M0 0 C2.64 0 5.28 0 8 0 C8 916.08 8 1832.16 8 2776 C5.36 2776 2.72 2776 0 2776 C0 1859.92 0 943.84 0 0 Z " fill="#151B53" transform="translate(2431,0)"/>
<path d="M0 0 C2.64 0 5.28 0 8 0 C8 916.08 8 1832.16 8 2776 C5.36 2776 2.72 2776 0 2776 C0 1859.92 0 943.84 0 0 Z " fill="#121852" transform="translate(2062,0)"/>
<path d="M0 0 C2.64 0 5.28 0 8 0 C8 916.08 8 1832.16 8 2776 C5.36 2776 2.72 2776 0 2776 C0 1859.92 0 943.84 0 0 Z " fill="#161B53" transform="translate(2023,0)"/>
<path d="M0 0 C2.64 0 5.28 0 8 0 C8 916.08 8 1832.16 8 2776 C5.36 2776 2.72 2776 0 2776 C0 1859.92 0 943.84 0 0 Z " fill="#151A54" transform="translate(1244,0)"/>
<path d="M0 0 C2.64 0 5.28 0 8 0 C8 916.08 8 1832.16 8 2776 C5.36 2776 2.72 2776 0 2776 C0 1859.92 0 943.84 0 0 Z " fill="#141A53" transform="translate(925,0)"/>
<path d="M0 0 C2.64 0 5.28 0 8 0 C8 916.08 8 1832.16 8 2776 C5.36 2776 2.72 2776 0 2776 C0 1859.92 0 943.84 0 0 Z " fill="#121851" transform="translate(547,0)"/>
<path d="M0 0 C2.64 0 5.28 0 8 0 C8 916.08 8 1832.16 8 2776 C5.36 2776 2.72 2776 0 2776 C0 1859.92 0 943.84 0 0 Z " fill="#121852" transform="translate(508,0)"/>
<path d="M0 0 C2.64 0 5.28 0 8 0 C8 916.08 8 1832.16 8 2776 C5.36 2776 2.72 2776 0 2776 C0 1859.92 0 943.84 0 0 Z " fill="#161B53" transform="translate(151,0)"/>
<path d="M0 0 C0.99 0 1.98 0 3 0 C3 916.08 3 1832.16 3 2776 C2.01 2776 1.02 2776 0 2776 C0 1859.92 0 943.84 0 0 Z " fill="#CA3F30" transform="translate(11580,0)"/>
</svg>
