<svg width="1350" height="1350" viewBox="0 0 1350 1350" fill="none" xmlns="http://www.w3.org/2000/svg">
<rect width="1350" height="1350" rx="675" fill="#CE2D19"/>
<path d="M479 1097V327H631.9C711.1 327 772.7 343.5 816.7 376.5C860.7 409.5 882.7 455.333 882.7 514C882.7 557.267 869.867 594.3 844.2 625.1C818.533 655.167 782.6 675.7 736.4 686.7V693.3C799.467 701.367 848.6 723.367 883.8 759.3C919.733 794.5 937.7 839.233 937.7 893.5C937.7 957.3 913.133 1007.17 864 1043.1C814.867 1079.03 745.933 1097 657.2 1097H479ZM633 353.4H553.8V683.4H631.9C747.767 683.4 805.7 628.4 805.7 518.4C805.7 408.4 748.133 353.4 633 353.4ZM657.2 709.8H553.8V1070.6H657.2C791.4 1070.6 858.5 1010.47 858.5 890.2C858.5 769.933 791.4 709.8 657.2 709.8Z" fill="white"/>
</svg>
