<svg width="32" height="32" viewBox="0 0 32 32" fill="none" xmlns="http://www.w3.org/2000/svg">
  <rect width="32" height="32" rx="6" fill="#d4af37"/>
  <path d="M8 12c0-2.2 1.8-4 4-4h8c2.2 0 4 1.8 4 4v8c0 2.2-1.8 4-4 4h-8c-2.2 0-4-1.8-4-4v-8z" fill="#ffffff"/>
  <path d="M12 14h8v2h-8v-2zm0 3h6v2h-6v-2zm0 3h4v2h-4v-2z" fill="#d4af37"/>
  <circle cx="14" cy="11" r="1.5" fill="#d4af37"/>
  <circle cx="18" cy="11" r="1.5" fill="#d4af37"/>
  <path d="M16 13c-1.1 0-2 .9-2 2s.9 2 2 2 2-.9 2-2-.9-2-2-2z" fill="#d4af37"/>
</svg>